<svg xmlns="http://www.w3.org/2000/svg" viewBox="0 327.6 612 133.5" enable-background="new 0 327.6 612 133.5"><path fill="#232020" d="M161.8 334.05v-.4h-2.5v117.60000000000001h2.5v-117.2z"/><path fill="#EB2B2D" d="M98.359 368.699c-.202-.081-.283-.202-.445-.283-3.193-1.9-7.195-2.91-12.005-3.193h-21.746000000000002v18.472c0 2.627 0 5.295-.081 7.842v31.648999999999997h21.908c4.568-.283 8.286-1.293 11.196-2.991h.081v-.081s0-.081-.081-.081c.283-.283.647-.445.889-.445h.081c.283-.202.566-.364.808-.566v-.081h-.081v-.081c.202-.202.283-.283.364-.202v.081c.283-.162.647-.445.889-.728v-.081h-.081c-.081 0-.202-.081-.202-.283.202-.162.283-.081.364.202v.081l.566-.525v-.081c.081-.081 0-.283 0-.445.202 0 .283 0 .283.162v.081c.202-.081.364-.162.445-.364v-.162s0-.081-.081-.081c.081-.081.202-.202.283-.081h.081c2.546-2.546 4.365-5.74 5.74-9.539.081-.364.283-.808.364-1.253h-.081c-.202.283-.283.162-.202-.283.081.081.202.081.283.081v.081c1.172-3.921 1.617-8.448 1.536-13.662v-1.173c0-.283 0-.525-.081-.647v.081c-.202.283-.202.202-.202-.364h.162c-.202-2.102-.445-4.163-.889-5.982-.889-4.082-2.546-7.559-4.81-10.388v.081c-.202.081-.283 0-.283-.162h.081v-.162c-.566-.525-1.091-1.172-1.617-1.738v.081c.081.445 0 .364-.283-.162h.081v-.081c-.808-.808-1.738-1.536-2.829-2.183v.081c-.323 0-.485-.202-.404-.445m-9.903-3.112h-.202c-.364.081-.566 0-.647-.162.566.081.849.081.849.162m-1.819-.081-4.729 13.379h.728v-.081h.808c2.344.081 3.921 1.011 4.729 2.627h.081v-.081c.202-.162.283-.081.081.283h-.081c0 .162.081.283.202.364v.081c.283-.202.364 0 .283.445 1.172 2.91 1.819 6.467 1.9 10.469v.081c.081.081.081.364.081.647v1.3339999999999999c.081.283.081.647 0 1.011v.081c0 3.638-.445 6.831-1.536 9.458v.162h.081c.081.081.081.162-.202.283h-.081c-1.091 2.546-3.436 3.84-7.074 3.719v-30.882m-17.745-3.112c.081 2.466.081 5.012.081 7.639v.081c-.081-2.546-.081-5.093-.081-7.72m17.462 3.638c.081 5.012.202 10.024.081 15.117v14.753c-.081-5.012-.202-10.024-.081-15.117v-14.753m21.18-6.548c.445 0 .445.081 0 0m4.81 8.65c.081.364.202.647 0 .647v-.6469999999999999m-16.613 13.622c-.121 0-.121-.081 0 0m18.068 1.94-44.988 10.994c.081 2.264.081 4.729.081 7.276v.081c-.081-2.344-.081-4.81-.081-7.357m56.387 28.456c0 .283 0 .445-.081.647.283 4.729 2.91 7.195 7.72 7.276.808 0 1.536-.081 2.183-.364 2.749-1.011 4.285-3.112 4.729-6.265v-1.253c-.566-3.921-2.91-6.104-6.912-6.548h-.8899999999999999c-3.719.525-6.023 2.546-6.75 6.104v.40399999999999997m12.247-69.928c-1.819-3.274-3.84-6.265-6.104-9.014-2.264-2.829-4.81-5.376-7.559-7.639s-5.74-4.365-9.014-6.184c-3.274-1.819-6.831-3.355-10.631-4.527-3.84-1.172-8.084-1.981-12.732-2.344h-.081c-.364 0-.566 0-.728-.081h-.607c-.283 0-.566 0-.647-.081h-6.508c-4.204.283-8.003.889-11.358 1.9-4.002 1.172-7.559 2.627-10.914 4.365-3.355 1.738-6.386 3.719-9.175 5.982s-5.457 4.729-7.842 7.437c-2.385 2.749-4.446 5.659-6.386 8.933-1.819 3.193-3.436 6.629-4.729 10.469-1.253 3.719-2.183 7.922-2.829 12.369v.8089999999999999c0 .283 0 .445-.081.647v.445c0 .283 0 .525-.081.647v1.6179999999999999c0 .808 0 1.738-.081 2.627v1.738c.081.162.081.364.081.647v.607c.081.202.081.364.081.647v.081c.364 4.729 1.172 8.933 2.466 12.813 1.253 3.8 2.749 7.357 4.527 10.631 1.819 3.274 3.84 6.265 6.184 9.014 2.264 2.749 4.81 5.295 7.639 7.639 2.749 2.264 5.821 4.365 9.014 6.184 3.274 1.819 6.831 3.274 10.631 4.568 3.719 1.172 7.842 1.981 12.288 2.344h7.561000000000001v-.081h1.415v-.081h.728c4.648-.364 8.893-1.172 12.652-2.466 3.84-1.293 7.357-2.829 10.55-4.648l2.627-1.536v-4.285c0-5.093 0-10.186-.081-15.117-1.536 1.536-3.193 2.991-4.931 4.365-2.91 2.183-6.104 4.082-9.661 5.538-3.557 1.536-7.639 2.466-12.288 2.91h-2.992c-.647.081-1.172.081-1.617 0h-.97c-.283 0-.566 0-.647-.081h-.8089999999999999c-.283 0-.445 0-.647-.081l-1.374-.162c-4.568-.566-8.448-1.657-11.924-3.193-3.476-1.657-6.629-3.557-9.458-5.821-2.829-2.264-5.255-4.81-7.478-7.72-2.183-2.91-4.002-6.104-5.538-9.741-1.455-3.557-2.466-7.639-2.829-12.369v-5.497h.081v-1.254h.081v-.445c.566-4.527 1.536-8.65 2.991-12.207 1.455-3.557 3.355-6.831 5.538-9.62 2.183-2.91 4.648-5.457 7.478-7.72 2.829-2.264 6.023-4.204 9.539-5.74 3.557-1.536 7.478-2.546 11.924-3.112.647-.081 1.172-.162 1.738-.162v-.081h1.173v-.081h5.618c4.648.445 8.731 1.374 12.288 2.829 3.557 1.455 6.831 3.274 9.741 5.457 2.91 2.183 5.457 4.648 7.72 7.437 2.264 2.829 4.163 5.982 5.74 9.458 1.536 3.436 2.627 7.437 3.274 11.924.081.728.202 1.374.202 2.102.081.162.081.445.081.728v.8089999999999999c.081 1.011.081 2.021 0 3.112v.8089999999999999c0 .364 0 .566-.081.728-.202 2.183-.445 4.285-.889 6.184-1.011 4.082-2.344 7.72-4.163 10.994-1.819 3.274-3.921 6.184-6.386 8.812v.081c5.012.081 10.024.162 15.117.162 1.253 0 2.546-.081 3.638-.162 1.9-3.193 3.557-6.629 4.81-10.388 1.253-3.719 2.264-7.922 2.829-12.369.081-.728.202-1.455.202-2.264v-.8089999999999999h.081v-2.5869999999999997h.081v-4.77c-.081-.364-.081-.808-.081-1.293v-.647c-.445-4.002-1.172-7.639-2.264-10.994-1.819-3.314-3.395-6.871-5.214-10.146z"/><path fill="#808384" d="M27.713 446.13c0 1.172.445 2.345 1.334 3.234.889.889 1.9 1.334 3.234 1.334 1.172 0 2.223-.445 3.113-1.334s1.334-1.9 1.334-3.234c0-1.172-.445-2.345-1.334-3.234-.889-.889-1.9-1.172-3.113-1.172-1.172 0-2.345.445-3.234 1.172-.889.889-1.334 1.9-1.334 3.234m1.779 2.83c-.728-.728-1.172-1.617-1.172-2.789 0-1.051.445-1.9 1.172-2.789.728-.728 1.617-1.172 2.789-1.172 1.051 0 1.9.445 2.668 1.172.728.728 1.172 1.779 1.172 2.789s-.445 2.062-1.172 2.789c-.728.728-1.617 1.172-2.668 1.172-1.172-.162-2.062-.445-2.789-1.172m.849-5.336v4.851h.889v-1.9h.728c.445 0 .728 0 1.051.162.283.162.445.606.445 1.172v.607h.889v-1.051c0-.162-.162-.445-.283-.728-.162-.283-.445-.445-.889-.445l.728-.283c.283-.162.445-.606.445-1.051 0-.606-.283-1.051-.728-1.172-.283-.162-.728-.162-1.334-.162h-1.94m.889.606h.728c.445 0 .889 0 1.051.162.162.162.283.283.283.728s-.162.606-.445.889h-1.778v-1.779h.162z"/><g fill="#232020" transform="translate(712.05 -1454.35)"><path d="M-159.1 1852c-1.1-12.1-7.6-18.9-19.2-20h-3.9999999999999996c-11 1.4-17.2 7.6-18.9 18.6v5.6c.6 12.7 6.8 19.8 18.6 21.2h6.2v-.3c10.4-1.7 16.1-8.2 17.5-19.2v-2.6h.3v-1.4000000000000001c-.5-.8-.5-1.3-.5-1.9m-19.8-14.4c2.3 0 4 .3 5.4 1.4 4.5 2.5 6.8 7.1 7.6 13.6.3 1.1.3 2.3 0 3.7-.6 6.2-2.8 10.4-6.8 13.3-2.5 1.7-5.6 2.3-9.6 1.4-8.8-1.4-12.7-7.6-12.4-18.4.6-9.6 6-14.7 15.8-15m-60.7 15v3.0999999999999996c.8 12.4 7.3 19.8 19.2 21.5h8.8v-.3c2.5 0 4.2-.6 5.1-2 .3-.3.3-.8.3-1.1v-2.6c0-.3 0-.8-.3-1.1-.3-.6-.8-.6-2 0-3.4 1.4-7.3 1.7-11.6.8-8.5-1.7-12.7-7.9-12.7-18.4 1.1-10.2 7.3-15 18.4-15 2.3 0 4.2.3 5.9 1.1.6.3 1.1.6 1.7.8.3-2 .3-4 .6-5.9v-.3c-2-1.1-4.8-1.7-7.9-2h-4.3c-12.4 1.1-19.5 7.6-21.5 19.5.3 1 .3 1.3.3 1.9zM-102 1832.5h-10.4c-.6 2-1.4 4-2 5.9-3.7 10.2-7.6 20.3-11.3 30.2-.8-2-1.7-4-2.5-6.2-3.7-10.2-7.6-20.3-11.6-30.2h-10.200000000000001v44h6.2v-37.599999999999994l11.6 29.9c.8 2.5 2 5.1 3.1 7.6h6.2c4-9.9 7.6-20.1 11.6-30.2.8-2.3 1.7-4.8 2.5-7.3v-.3c.6-.3.8.6.8 2.3-.3 11.9-.3 23.4-.3 35.3h6.2v-2.5c.1-13.2.1-27 .1-40.9m-343.7 18.7c-1.1-12.1-7.9-18.6-20-19.5h-4.3c-11.3 1.1-18.1 6.8-19.8 17.5v8.5c1.1 11.3 7.1 17.5 17.8 19.2h7.8999999999999995v-.3c11-1.4 16.9-7.9 18.1-18.9v-2.6h.3v-3.9m-23.2-10.8c.8-.3 1.7-.3 2.3 0 5.1 1.1 8.2 4.5 8.8 10.2.8 8.5-1.1 13.8-6.2 16.9-1.1.6-2.5.8-4.5.3-6.8-1.4-9.6-6.8-9-16.1.4-6.2 3.3-9.9 8.6-11.3m211.3 35.9c3.4.3 7.1.3 10.4.3h.3v-10.200000000000001h-10.700000000000001v9.9zM-494.9 1852c-1.1-12.4-8.2-18.6-20.9-19.2h-.3c-.8 0-1.4 0-1.7-.3h-19.2v44h18.7v-.3h2c13-.6 20.3-7.3 21.5-19.8v-.6c-.1-1.3-.1-2.4-.1-3.8m-18-9.3c3.1 1.7 4.8 4.5 5.4 8.5 1.4 12.1-4.5 17.8-17.5 16.4v-26.6h1.1v-.3h4c3 .6 5.3 1.1 7 2m129-10.2h-17.8c-3.1 9.9-6.2 19.5-9.6 29.1l-9.3-29.1h-18.400000000000002v44h11.3v-33.599999999999994l10.2 31.3c.3.6.3 1.1.6 2h11c3.4-10.4 7.1-20.6 10.4-31.1l.6-1.7v-.6c.6-.3.6.3.6 2v5.8999999999999995c0 3.7 0 7.1-.3 10.2v15.3h11.600000000000001v-2.5c-.9-13.5-.9-27.3-.9-41.2m39.3 44.1h12.7c-1.7-4.8-3.4-9.6-5.4-14.1-4-9.9-7.6-20.1-11.6-29.9h-14.700000000000001c-1.7 4.5-3.1 9-5.1 13.6-4 9.9-7.6 20.1-11.6 29.9 1.4.6 3.4.8 5.6.6l6.2-.3c1.4-2.8 2.5-5.9 3.7-9.3v-.3h16.4c1.2 3.6 2.4 6.7 3.8 9.8m-11.6-35l5.1 16.9c-2.3 0-4.8 0-7.1.3-1.7 0-2.8-.3-3.4-.8 1.1-2.5 2-5.4 2.8-8.2v-.3h-.3c-.3 0-.3-.3-.3-.6.3-.3.3-.3.6 0 .9-2.5 1.7-5.1 2.6-7.3m40.9-9.1h-11.9v44h11.9v-44m49.2 2.6v-2.5h-10.700000000000001v10.8c0 6.5 0 12.7-.3 18.9-.3-.6-.6-1.1-.8-1.7-4.5-9-9.3-18.4-13.8-27.7h-15.3v44h11v-29.900000000000002h.3c4.5 9.3 9.3 18.4 14.1 27.7.3.6.6 1.4 1.1 2.3h14.700000000000001c-.3-14.3-.3-28.1-.3-41.9z"/></g></svg>