<?xml version="1.0" encoding="UTF-8"?>
<svg width="105px" height="64px" viewBox="0 0 105 64" version="1.1" xmlns="http://www.w3.org/2000/svg" xmlns:xlink="http://www.w3.org/1999/xlink">
    <!-- Generator: Sketch 41 (35326) - http://www.bohemiancoding.com/sketch -->
    <title>Combined Shape</title>
    <desc>Created with Sketch.</desc>
    <defs>
        <linearGradient x1="50%" y1="3.061617e-15%" x2="50%" y2="100%" id="linearGradient-1">
            <stop stop-color="#E0C038" offset="0%"></stop>
            <stop stop-color="#C06020" offset="50%"></stop>
            <stop stop-color="#7C30C0" offset="100%"></stop>
        </linearGradient>
    </defs>
    <g id="Banners" stroke="none" stroke-width="1" fill="none" fill-rule="evenodd">
        <g id="Desktop-HD" transform="translate(-1084.000000, -126.000000)" fill="url(#linearGradient-1)">
            <path d="M1099.12245,183.454284 L1089.5102,183.454284 L1087.21429,189.539034 L1084,189.539034 L1092.63265,167.75071 L1096.09184,167.75071 L1104.72449,189.539034 L1101.47959,189.539034 L1099.12245,183.454284 Z M1090.58163,180.657757 L1098.05102,180.657757 L1094.28571,170.885279 L1090.58163,180.657757 Z M1115.65306,177.676844 C1115.22449,177.615381 1114.80612,177.58465 1114.39796,177.58465 C1113.19387,177.58465 1112.21939,177.938054 1111.47449,178.644872 C1110.72959,179.35169 1110.35714,180.514337 1110.35714,182.132848 L1110.35714,189.539034 L1107.47959,189.539034 L1107.47959,174.757393 L1110.29592,174.757393 L1110.29592,177.338802 C1110.56123,176.765153 1110.87245,176.299069 1111.22959,175.940539 C1111.58674,175.582008 1111.95918,175.295187 1112.34694,175.080069 C1112.7347,174.86495 1113.13265,174.716418 1113.54082,174.634468 C1113.94898,174.552518 1114.33673,174.511544 1114.70408,174.511544 C1114.90816,174.511544 1115.09694,174.521788 1115.27041,174.542275 C1115.44388,174.562763 1115.57143,174.58325 1115.65306,174.603737 L1115.65306,177.676844 Z M1118.71429,189.539034 L1118.71429,174.757393 L1121.56122,174.757393 L1121.56122,189.539034 L1118.71429,189.539034 Z M1118.07143,169.164339 C1118.07143,168.570202 1118.27041,168.073388 1118.66837,167.673883 C1119.06633,167.274377 1119.55102,167.074627 1120.12245,167.074627 C1120.71429,167.074627 1121.20918,167.274377 1121.60714,167.673883 C1122.0051,168.073388 1122.20408,168.570202 1122.20408,169.164339 C1122.20408,169.737989 1122.0051,170.224559 1121.60714,170.624065 C1121.20918,171.02357 1120.71429,171.22332 1120.12245,171.22332 C1119.55102,171.22332 1119.06633,171.02357 1118.66837,170.624065 C1118.27041,170.224559 1118.07143,169.737989 1118.07143,169.164339 L1118.07143,169.164339 Z M1125.23469,189.539034 L1125.23469,187.019087 L1133.31633,177.369533 L1125.35714,177.369533 L1125.35714,174.757393 L1136.89796,174.757393 L1136.89796,177.27734 L1128.81633,186.926894 L1137.05102,186.926894 L1137.05102,189.539034 L1125.23469,189.539034 Z M1147.03061,187.418591 C1147.64286,187.418591 1148.22449,187.305911 1148.77551,187.080549 C1149.32653,186.855187 1149.81632,186.517148 1150.2449,186.066424 C1150.67347,185.615699 1151.0102,185.062546 1151.2551,184.406947 C1151.5,183.751347 1151.62245,182.993322 1151.62245,182.132848 C1151.62245,181.272374 1151.5,180.51947 1151.2551,179.874115 C1151.0102,179.228759 1150.67347,178.680727 1150.2449,178.230003 C1149.81632,177.779278 1149.32653,177.44124 1148.77551,177.215878 C1148.22449,176.990515 1147.64286,176.877836 1147.03061,176.877836 C1146.41836,176.877836 1145.83674,176.990515 1145.28571,177.215878 C1144.73469,177.44124 1144.2449,177.779278 1143.81633,178.230003 C1143.38775,178.680727 1143.05102,179.228759 1142.80612,179.874115 C1142.56122,180.51947 1142.43878,181.272374 1142.43878,182.132848 C1142.43878,182.993322 1142.56122,183.751347 1142.80612,184.406947 C1143.05102,185.062546 1143.38775,185.615699 1143.81633,186.066424 C1144.2449,186.517148 1144.73469,186.855187 1145.28571,187.080549 C1145.83674,187.305911 1146.41836,187.418591 1147.03061,187.418591 L1147.03061,187.418591 Z M1147.03061,174.296427 C1148.13266,174.296427 1149.14285,174.496177 1150.06122,174.895682 C1150.9796,175.295188 1151.77551,175.84322 1152.44898,176.539794 C1153.12245,177.236369 1153.64286,178.060977 1154.0102,179.013645 C1154.37755,179.966313 1154.56122,181.006037 1154.56122,182.132848 C1154.56122,183.259659 1154.37755,184.304505 1154.0102,185.267416 C1153.64286,186.230328 1153.12245,187.060058 1152.44898,187.756632 C1151.77551,188.453207 1150.9796,189.001238 1150.06122,189.400744 C1149.14285,189.80025 1148.13266,190 1147.03061,190 C1145.92857,190 1144.91837,189.80025 1144,189.400744 C1143.08163,189.001238 1142.28572,188.453207 1141.61224,187.756632 C1140.93877,187.060058 1140.41837,186.230328 1140.05102,185.267416 C1139.68367,184.304505 1139.5,183.259659 1139.5,182.132848 C1139.5,181.006037 1139.68367,179.966313 1140.05102,179.013645 C1140.41837,178.060977 1140.93877,177.236369 1141.61224,176.539794 C1142.28572,175.84322 1143.08163,175.295188 1144,174.895682 C1144.91837,174.496177 1145.92857,174.296427 1147.03061,174.296427 L1147.03061,174.296427 Z M1161.11224,189.539034 L1158.23469,189.539034 L1158.23469,174.757393 L1161.05102,174.757393 L1161.05102,176.877836 C1161.58164,175.9559 1162.2551,175.30031 1163.07143,174.911048 C1163.88776,174.521786 1164.72449,174.327158 1165.58163,174.327158 C1166.45919,174.327158 1167.22959,174.47569 1167.89286,174.772758 C1168.55613,175.069827 1169.10714,175.47957 1169.54592,176.002001 C1169.9847,176.524431 1170.31122,177.144168 1170.52551,177.86123 C1170.7398,178.578292 1170.84694,179.346561 1170.84694,180.16606 L1170.84694,189.539034 L1167.96939,189.539034 L1167.96939,180.657757 C1167.96939,180.14557 1167.91327,179.664121 1167.80102,179.213397 C1167.68877,178.762672 1167.4949,178.368294 1167.21939,178.030251 C1166.94388,177.692208 1166.58674,177.425874 1166.14796,177.231243 C1165.70918,177.036612 1165.17347,176.939298 1164.54082,176.939298 C1163.96938,176.939298 1163.46939,177.046856 1163.04082,177.261974 C1162.61224,177.477093 1162.2551,177.769035 1161.96939,178.13781 C1161.68367,178.506584 1161.46939,178.936815 1161.32653,179.428514 C1161.18367,179.920214 1161.11224,180.442637 1161.11224,180.995798 L1161.11224,189.539034 Z M1174.52041,185.574727 C1174.52041,184.919128 1174.63265,184.330121 1174.85714,183.807691 C1175.08163,183.28526 1175.39286,182.839664 1175.79082,182.47089 C1176.18878,182.102115 1176.66326,181.805051 1177.21429,181.579689 C1177.76531,181.354326 1178.35714,181.190429 1178.9898,181.087992 L1182.96939,180.504101 C1183.41837,180.442639 1183.71939,180.309472 1183.87245,180.104598 C1184.02551,179.899723 1184.10204,179.66412 1184.10204,179.397783 C1184.10204,178.680721 1183.85204,178.060985 1183.35204,177.538554 C1182.85204,177.016123 1182.04082,176.754912 1180.91837,176.754912 C1179.89795,176.754912 1179.11225,177.03661 1178.56122,177.600016 C1178.0102,178.163422 1177.68367,178.875351 1177.58163,179.735825 L1174.82653,179.090473 C1174.90816,178.393898 1175.11735,177.748552 1175.45408,177.154416 C1175.79082,176.560279 1176.22449,176.053221 1176.7551,175.633228 C1177.28572,175.213235 1177.90306,174.88544 1178.60714,174.649834 C1179.31123,174.414228 1180.06122,174.296427 1180.85714,174.296427 C1181.95919,174.296427 1182.89796,174.444959 1183.67347,174.742027 C1184.44898,175.039096 1185.08163,175.433474 1185.57143,175.925173 C1186.06123,176.416873 1186.41837,176.990513 1186.64286,177.646113 C1186.86735,178.301712 1186.97959,178.988032 1186.97959,179.705094 L1186.97959,187.11128 C1186.97959,187.766879 1187,188.289302 1187.04082,188.678564 C1187.08163,189.067826 1187.12245,189.354647 1187.16327,189.539034 L1184.34694,189.539034 C1184.30612,189.354647 1184.27041,189.108801 1184.2398,188.801489 C1184.20918,188.494176 1184.19388,188.074189 1184.19388,187.541515 C1184.03061,187.807852 1183.81633,188.084429 1183.55102,188.371254 C1183.28571,188.658078 1182.95919,188.924412 1182.57143,189.170261 C1182.18367,189.416111 1181.72959,189.615861 1181.20918,189.769517 C1180.68877,189.923173 1180.10204,190 1179.44898,190 C1178.69387,190 1178.01531,189.877077 1177.41327,189.631227 C1176.81122,189.385378 1176.29592,189.062705 1175.86735,188.663199 C1175.43877,188.263693 1175.10714,187.79761 1174.87245,187.264935 C1174.63775,186.732261 1174.52041,186.168864 1174.52041,185.574727 L1174.52041,185.574727 Z M1179.84694,187.572246 C1180.43878,187.572246 1180.9949,187.495419 1181.51531,187.341763 C1182.03572,187.188107 1182.48469,186.942261 1182.86224,186.604218 C1183.2398,186.266174 1183.54082,185.815456 1183.76531,185.252051 C1183.9898,184.688645 1184.10204,184.007447 1184.10204,183.208435 L1184.10204,182.532352 L1179.60204,183.208435 C1178.98979,183.310872 1178.47959,183.541353 1178.07143,183.899884 C1177.66326,184.258415 1177.45918,184.765472 1177.45918,185.421072 C1177.45918,185.974233 1177.67347,186.471047 1178.10204,186.911528 C1178.53061,187.352009 1179.11224,187.572246 1179.84694,187.572246 Z M1104.2743,158.754226 L1104.2743,145.453477 L1090.25918,145.453477 L1090.25918,158.754226 L1084,158.754226 L1084,126.67861 L1090.25918,126.67861 L1090.25918,139.572193 L1104.2743,139.572193 L1104.2743,126.67861 L1110.57883,126.67861 L1110.57883,158.754226 L1104.2743,158.754226 Z M1116.11231,152.69198 C1116.11231,151.696681 1116.28618,150.814497 1116.63391,150.045402 C1116.98164,149.276307 1117.45788,148.605245 1118.06263,148.032194 C1118.66739,147.459143 1119.37041,147.006741 1120.17171,146.674974 C1120.97301,146.343208 1121.84233,146.101927 1122.7797,145.951124 L1128.26782,145.136792 C1128.90281,145.046311 1129.34125,144.85781 1129.58315,144.571284 C1129.82506,144.284759 1129.946,143.945457 1129.946,143.55337 C1129.946,142.769195 1129.63607,142.090592 1129.0162,141.517541 C1128.39633,140.94449 1127.45141,140.657969 1126.18143,140.657969 C1124.85097,140.657969 1123.83046,141.01989 1123.11987,141.743744 C1122.40928,142.467598 1122.00864,143.312082 1121.91793,144.27722 L1116.56587,143.146204 C1116.65659,142.271547 1116.92872,141.396904 1117.38229,140.522247 C1117.83586,139.64759 1118.45572,138.863427 1119.2419,138.169733 C1120.02808,137.47604 1120.99567,136.910537 1122.14471,136.473209 C1123.29374,136.035881 1124.62418,135.81722 1126.13607,135.81722 C1127.88986,135.81722 1129.3866,136.050961 1130.62635,136.51845 C1131.8661,136.985939 1132.87149,137.604221 1133.64255,138.373316 C1134.41361,139.142411 1134.973,140.039675 1135.32073,141.065134 C1135.66847,142.090594 1135.84233,143.161279 1135.84233,144.27722 L1135.84233,155.225456 C1135.84233,155.828668 1135.87257,156.46957 1135.93305,157.148183 C1135.99352,157.826796 1136.054,158.362139 1136.11447,158.754226 L1130.58099,158.754226 C1130.52052,158.45262 1130.4676,158.037919 1130.42225,157.510108 C1130.37689,156.982298 1130.35421,156.507276 1130.35421,156.085028 C1129.77969,156.959685 1128.95573,157.728768 1127.88229,158.392301 C1126.80885,159.055834 1125.44061,159.387595 1123.77754,159.387595 C1122.59827,159.387595 1121.5324,159.199094 1120.57991,158.822087 C1119.62743,158.44508 1118.81858,157.947438 1118.15335,157.329146 C1117.48812,156.710854 1116.98164,156.002091 1116.63391,155.202836 C1116.28618,154.40358 1116.11231,153.566637 1116.11231,152.69198 Z M1125.04752,154.908771 C1125.68251,154.908771 1126.29481,154.825831 1126.88445,154.659948 C1127.47409,154.494065 1127.99568,154.207543 1128.44924,153.800376 C1128.90281,153.393208 1129.26566,152.865406 1129.5378,152.216953 C1129.80994,151.568501 1129.946,150.746637 1129.946,149.751338 L1129.946,148.756044 L1124.91145,149.525135 C1124.12527,149.645777 1123.46761,149.924758 1122.93844,150.362087 C1122.40928,150.799415 1122.14471,151.455398 1122.14471,152.330055 C1122.14471,152.993587 1122.38661,153.58925 1122.87041,154.11706 C1123.35421,154.64487 1124.07991,154.908771 1125.04752,154.908771 Z M1151.94384,141.381819 C1151.15766,141.381819 1150.42441,141.517539 1149.74406,141.788985 C1149.06371,142.06043 1148.46653,142.460052 1147.95248,142.987862 C1147.43844,143.515672 1147.03024,144.171655 1146.72786,144.95583 C1146.42548,145.740005 1146.2743,146.629729 1146.2743,147.625028 C1146.2743,148.620327 1146.42548,149.510051 1146.72786,150.294226 C1147.03024,151.078401 1147.446,151.741924 1147.97516,152.284814 C1148.50432,152.827705 1149.10907,153.234866 1149.78942,153.506311 C1150.46977,153.777757 1151.20302,153.913477 1151.9892,153.913477 C1152.74514,153.913477 1153.41792,153.800377 1154.00756,153.574172 C1154.5972,153.347968 1155.10367,153.053907 1155.527,152.69198 C1155.95033,152.330053 1156.2905,151.922891 1156.54752,151.470482 C1156.80454,151.018074 1156.99352,150.580752 1157.11447,150.158504 L1162.42117,151.922889 C1162.17926,152.857867 1161.77862,153.770211 1161.21922,154.659948 C1160.65982,155.549685 1159.94169,156.348928 1159.06479,157.057702 C1158.1879,157.766476 1157.15983,158.339518 1155.98056,158.776846 C1154.80129,159.214175 1153.47085,159.432836 1151.9892,159.432836 C1150.35636,159.432836 1148.82182,159.138775 1147.38553,158.550643 C1145.94924,157.962512 1144.70195,157.140648 1143.64363,156.085028 C1142.58531,155.029408 1141.75378,153.785303 1141.14903,152.352675 C1140.54427,150.920048 1140.2419,149.344181 1140.2419,147.625028 C1140.2419,145.905875 1140.53671,144.322468 1141.12635,142.87476 C1141.71599,141.427052 1142.53239,140.182947 1143.57559,139.142407 C1144.6188,138.101867 1145.84341,137.287544 1147.24946,136.699412 C1148.65551,136.111281 1150.17494,135.81722 1151.80778,135.81722 C1153.31966,135.81722 1154.67278,136.035881 1155.86717,136.473209 C1157.06156,136.910537 1158.09719,137.47604 1158.97408,138.169733 C1159.85098,138.863427 1160.56155,139.66267 1161.10583,140.567487 C1161.65011,141.472305 1162.0432,142.392189 1162.2851,143.327167 L1156.88769,145.136792 C1156.61555,144.201814 1156.09396,143.342251 1155.32289,142.558076 C1154.55183,141.773901 1153.42549,141.381819 1151.94384,141.381819 Z M1179.56587,145.860643 L1188.68251,158.754226 L1181.28942,158.754226 L1175.39309,150.248985 L1172.89849,152.872942 L1172.89849,158.754226 L1166.86609,158.754226 L1166.86609,126 L1172.89849,126 L1172.89849,144.774867 L1180.60907,136.495829 L1188.50108,136.495829 L1179.56587,145.860643 Z" id="Combined-Shape"></path>
        </g>
    </g>
</svg>