<?xml version="1.0" encoding="utf-8"?>
<!-- Generator: Adobe Illustrator 16.0.0, SVG Export Plug-In . SVG Version: 6.00 Build 0)  -->
<!DOCTYPE svg PUBLIC "-//W3C//DTD SVG 1.1//EN" "http://www.w3.org/Graphics/SVG/1.1/DTD/svg11.dtd">
<svg version="1.1" id="Layer_1" xmlns="http://www.w3.org/2000/svg" xmlns:xlink="http://www.w3.org/1999/xlink" x="0px" y="0px"
	 width="500px" height="146.046px" viewBox="0 0 500 146.046" enable-background="new 0 0 500 146.046" xml:space="preserve">
<g>
	<g>
		<path fill="#ffffff" d="M125.889,51.865c0,0-1.124-2.907-1.777-4.315l10.242-14.348l-6.243-8.625l-16.971,5.049
			c-3.239-3.02-6.826-5.653-10.708-7.859c0.011-4.198-0.391-17.587-0.391-17.587l-10.14-3.528c0,0-8.335,11.082-10.316,14.182
			c-2.36-0.306-4.775-0.456-7.222-0.456c-2.088,0-4.149,0.118-6.178,0.333L55.985,0.651L45.455,4.18v16.944
			c-4.192,2.249-8.074,5.017-11.563,8.212l-15.724-5.15l-6.237,8.625c0,0,6.296,10.253,9.214,13.604
			c-2.137,4.379-3.721,9.08-4.669,14c-6.071,1.927-15.852,4.952-15.852,4.952l0.391,11.377c0,0,11.563,3.206,15.386,4.952
			c0.916,4.93,2.468,9.636,4.572,14.038l-9.824,13.17l6.237,9.026l16.179-5.064c3.539,3.287,7.49,6.135,11.772,8.454
			c0.081,0.733,0.075,1.59-0.268,2.099v14.514l10.525,3.924l10.322-14.096c2.12,0.241,4.267,0.363,6.446,0.363
			c2.452,0,4.872-0.149,7.238-0.455l9.524,13.796l10.916-3.137v-17.373c3.94-2.195,7.597-4.845,10.89-7.881l16.019,5.248
			l7.014-9.021L123.79,95.652c0.771-1.611,2.077-4.952,2.077-4.952l-2.431-1.456l-8.721,1.076
			c-5.991,16.993-23.106,27.213-42.353,27.213c-25.842,0-46.786-20.987-46.786-46.872c0-25.886,20.944-46.872,46.786-46.872
			c19.568,0,35.784,10.75,42.729,27.93l7.564,1.194L125.889,51.865z"/>
		<path fill="#ffffff" d="M111.979,90.412c-7.602,14.707-22.169,24.573-39.451,24.573c-24.333,0-44.056-19.841-44.056-44.323
			c0-24.478,19.723-44.324,44.056-44.324c17.592,0,32.77,10.376,39.837,25.372c-0.021,0.059-6.307,2.725-6.307,2.725H95.544
			c-5.204-7.613-13.92-12.602-23.797-12.602c-15.933,0-28.851,12.998-28.851,29.027s12.918,29.028,28.851,29.028
			c9.915,0,18.668-5.032,23.856-12.698h10.846L111.979,90.412z"/>
	</g>
	<g>
		<path fill="#ffffff" d="M175.362,53.422c2.88,2.779,4.481,5.943,4.797,9.481h-5.504c-0.615-2.687-1.836-4.818-3.672-6.386
			c-1.825-1.575-4.401-2.356-7.704-2.356c-4.037,0-7.292,1.446-9.776,4.331c-2.484,2.892-3.721,7.319-3.721,13.288
			c0,4.887,1.119,8.849,3.362,11.891c2.238,3.04,5.579,4.561,10.028,4.561c4.09,0,7.2-1.601,9.337-4.797
			c1.14-1.686,1.981-3.902,2.543-6.648h5.503c-0.482,4.394-2.093,8.078-4.824,11.05c-3.276,3.576-7.688,5.364-13.245,5.364
			c-4.797,0-8.817-1.468-12.073-4.4c-4.288-3.882-6.424-9.883-6.424-17.989c0-6.157,1.606-11.2,4.824-15.14
			c3.485-4.283,8.282-6.425,14.396-6.425C168.429,49.247,172.482,50.639,175.362,53.422z"/>
		<path fill="#ffffff" d="M209.213,64.719c2.688,2.612,4.026,6.445,4.026,11.516c0,4.898-1.183,8.951-3.55,12.143
			c-2.371,3.201-6.043,4.796-11.028,4.796c-4.154,0-7.447-1.413-9.899-4.24c-2.44-2.826-3.662-6.623-3.662-11.393
			c0-5.107,1.29-9.17,3.865-12.2c2.575-3.02,6.034-4.535,10.37-4.535C203.233,60.806,206.521,62.112,209.213,64.719z
			 M206.039,84.929c1.236-2.564,1.863-5.412,1.863-8.55c0-2.836-0.45-5.144-1.343-6.917c-1.43-2.8-3.882-4.202-7.362-4.202
			c-3.089,0-5.333,1.193-6.735,3.576c-1.408,2.383-2.103,5.258-2.103,8.62c0,3.233,0.695,5.926,2.103,8.084
			c1.403,2.152,3.63,3.233,6.682,3.233C202.495,88.773,204.792,87.488,206.039,84.929z"/>
		<path fill="#ffffff" d="M236.223,62.621c0.905,0.567,1.933,1.562,3.084,2.981V50.243h4.909v41.849h-4.599v-4.229
			c-1.188,1.874-2.585,3.229-4.214,4.058c-1.622,0.835-3.479,1.252-5.567,1.252c-3.378,0-6.302-1.424-8.77-4.272
			c-2.473-2.849-3.705-6.638-3.705-11.376c0-4.427,1.125-8.267,3.374-11.511c2.254-3.25,5.477-4.873,9.664-4.873
			C232.716,61.142,234.66,61.64,236.223,62.621z M224.814,85.422c1.375,2.195,3.582,3.293,6.612,3.293
			c2.355,0,4.288-1.017,5.809-3.052c1.515-2.034,2.27-4.953,2.27-8.759c0-3.844-0.781-6.687-2.344-8.534
			c-1.563-1.842-3.491-2.769-5.793-2.769c-2.558,0-4.636,0.985-6.231,2.956c-1.59,1.964-2.382,4.861-2.382,8.689
			C222.753,80.501,223.438,83.227,224.814,85.422z"/>
		<path fill="#ffffff" d="M270.637,62.524c2.018,1.012,3.549,2.324,4.604,3.929c1.013,1.538,1.692,3.325,2.03,5.365
			c0.304,1.402,0.453,3.64,0.453,6.703h-22.12c0.102,3.094,0.819,5.578,2.174,7.446c1.349,1.869,3.442,2.806,6.278,2.806
			c2.651,0,4.761-0.883,6.34-2.656c0.879-1.022,1.51-2.21,1.874-3.565h5.032c-0.134,1.119-0.578,2.366-1.328,3.736
			c-0.75,1.372-1.579,2.496-2.5,3.363c-1.541,1.515-3.447,2.539-5.717,3.068c-1.222,0.3-2.607,0.454-4.146,0.454
			c-3.762,0-6.947-1.376-9.565-4.133c-2.613-2.752-3.925-6.612-3.925-11.57c0-4.881,1.323-8.849,3.952-11.895
			c2.639-3.052,6.081-4.572,10.333-4.572C266.547,61.003,268.629,61.512,270.637,62.524z M272.473,74.462
			c-0.203-2.216-0.686-3.983-1.434-5.311c-1.394-2.462-3.716-3.694-6.956-3.694c-2.328,0-4.282,0.852-5.861,2.543
			c-1.574,1.698-2.41,3.85-2.5,6.462H272.473z"/>
		<path fill="#ffffff" d="M284.336,61.683h4.862v5.252c0.39-1.018,1.37-2.265,2.922-3.731c1.554-1.468,3.342-2.201,5.365-2.201
			c0.097,0,0.257,0.011,0.481,0.027c0.23,0.022,0.616,0.059,1.162,0.112v5.396c-0.301-0.058-0.583-0.095-0.835-0.112
			c-0.257-0.017-0.535-0.032-0.842-0.032c-2.568,0-4.544,0.83-5.931,2.485c-1.382,1.659-2.072,3.565-2.072,5.723v17.489h-5.113
			V61.683z"/>
		<path fill="#ffffff" d="M349.897,53.422c2.881,2.779,4.487,5.943,4.803,9.481h-5.509c-0.615-2.687-1.837-4.818-3.667-6.386
			c-1.831-1.575-4.401-2.356-7.715-2.356c-4.025,0-7.292,1.446-9.771,4.331c-2.478,2.892-3.721,7.319-3.721,13.288
			c0,4.887,1.12,8.849,3.363,11.891c2.237,3.04,5.578,4.561,10.022,4.561c4.09,0,7.21-1.601,9.347-4.797
			c1.135-1.686,1.981-3.902,2.537-6.648h5.51c-0.487,4.394-2.093,8.078-4.824,11.05c-3.277,3.576-7.698,5.364-13.25,5.364
			c-4.792,0-8.817-1.468-12.072-4.4c-4.283-3.882-6.424-9.883-6.424-17.989c0-6.157,1.611-11.2,4.828-15.14
			c3.475-4.283,8.276-6.425,14.396-6.425C342.971,49.247,347.019,50.639,349.897,53.422z"/>
		<path fill="#ffffff" d="M378.011,73.692c1.171-0.155,1.959-0.643,2.361-1.472c0.225-0.461,0.331-1.113,0.331-1.97
			c0-1.746-0.61-3.02-1.853-3.806c-1.242-0.788-3.009-1.184-5.311-1.184c-2.667,0-4.551,0.723-5.67,2.167
			c-0.626,0.803-1.033,1.992-1.215,3.566h-4.771c0.091-3.753,1.312-6.371,3.642-7.838c2.338-1.472,5.043-2.211,8.125-2.211
			c3.572,0,6.475,0.685,8.706,2.045c2.211,1.365,3.32,3.484,3.32,6.36v17.523c0,0.53,0.111,0.953,0.325,1.274
			c0.22,0.321,0.675,0.482,1.381,0.482c0.226,0,0.482-0.017,0.761-0.043c0.29-0.027,0.589-0.07,0.91-0.124v3.774
			c-0.792,0.23-1.397,0.37-1.814,0.428c-0.423,0.055-0.985,0.081-1.708,0.081c-1.756,0-3.036-0.621-3.833-1.874
			c-0.413-0.658-0.707-1.596-0.879-2.811c-1.038,1.365-2.532,2.548-4.485,3.55c-1.949,1-4.103,1.504-6.446,1.504
			c-2.815,0-5.123-0.857-6.911-2.564c-1.794-1.714-2.683-3.855-2.683-6.425c0-2.815,0.878-5,2.64-6.552
			c1.761-1.547,4.068-2.505,6.928-2.864L378.011,73.692z M367.244,87.499c1.086,0.846,2.36,1.274,3.839,1.274
			c1.799,0,3.538-0.417,5.225-1.248c2.838-1.381,4.257-3.64,4.257-6.777v-4.112c-0.622,0.402-1.425,0.733-2.409,1
			c-0.98,0.268-1.939,0.455-2.887,0.568l-3.088,0.396c-1.853,0.246-3.245,0.632-4.182,1.162c-1.579,0.888-2.366,2.307-2.366,4.25
			C365.633,85.486,366.168,86.647,367.244,87.499z"/>
		<path fill="#ffffff" d="M394.055,61.683h5.054v4.316c1.211-1.495,2.309-2.581,3.293-3.267c1.687-1.15,3.593-1.729,5.74-1.729
			c2.419,0,4.363,0.594,5.846,1.788c0.83,0.68,1.59,1.687,2.27,3.009c1.136-1.628,2.468-2.832,4.005-3.619
			c1.53-0.787,3.255-1.178,5.166-1.178c4.09,0,6.874,1.478,8.347,4.428c0.793,1.595,1.194,3.731,1.194,6.419v20.242h-5.312V70.966
			c0-2.022-0.503-3.416-1.515-4.17c-1.013-0.761-2.249-1.135-3.711-1.135c-2.002,0-3.731,0.669-5.183,2.013
			c-1.444,1.343-2.173,3.592-2.173,6.729v17.688h-5.188V72.246c0-2.061-0.25-3.571-0.744-4.513
			c-0.775-1.419-2.221-2.131-4.342-2.131c-1.932,0-3.688,0.75-5.268,2.244s-2.372,4.202-2.372,8.121v16.125h-5.107V61.683z"/>
		<path fill="#ffffff" d="M442.067,61.828h5v4.031c1.018-1.381,2.142-2.452,3.356-3.212c1.724-1.135,3.759-1.703,6.094-1.703
			c3.453,0,6.386,1.322,8.796,3.961c2.408,2.645,3.613,6.415,3.613,11.319c0,6.622-1.74,11.354-5.22,14.198
			c-2.201,1.793-4.766,2.693-7.693,2.693c-2.302,0-4.229-0.504-5.782-1.504c-0.915-0.568-1.933-1.542-3.052-2.923v15.531h-5.112
			V61.828z M461.298,85.663c1.584-1.998,2.377-4.985,2.377-8.958c0-2.425-0.354-4.502-1.055-6.248
			c-1.328-3.351-3.764-5.026-7.292-5.026c-3.555,0-5.979,1.771-7.298,5.311c-0.701,1.895-1.054,4.293-1.054,7.212
			c0,2.344,0.353,4.342,1.054,5.99c1.334,3.143,3.765,4.716,7.298,4.716C457.721,88.66,459.713,87.66,461.298,85.663z"/>
		<path fill="#ffffff" d="M477.872,82.552c0.156,1.702,0.59,3.014,1.302,3.919c1.316,1.649,3.598,2.468,6.842,2.468
			c1.928,0,3.63-0.408,5.102-1.232c1.468-0.824,2.201-2.099,2.201-3.817c0-1.306-0.584-2.302-1.761-2.981
			c-0.75-0.417-2.229-0.899-4.445-1.451l-4.122-1.023c-2.639-0.642-4.577-1.359-5.834-2.157c-2.229-1.382-3.342-3.293-3.342-5.735
			c0-2.879,1.049-5.208,3.147-6.986c2.099-1.778,4.926-2.666,8.476-2.666c4.642,0,7.987,1.343,10.037,4.031
			c1.291,1.703,1.912,3.539,1.876,5.509h-4.825c-0.103-1.151-0.513-2.194-1.252-3.137c-1.205-1.338-3.282-2.002-6.249-2.002
			c-1.975,0-3.475,0.37-4.491,1.103c-1.018,0.733-1.526,1.703-1.526,2.913c0,1.321,0.671,2.377,2.003,3.169
			c0.776,0.472,1.912,0.889,3.416,1.248l3.441,0.824c3.743,0.889,6.248,1.751,7.522,2.581c1.986,1.306,2.982,3.363,2.982,6.163
			c0,2.708-1.045,5.048-3.122,7.013c-2.077,1.97-5.246,2.954-9.503,2.954c-4.577,0-7.815-1.027-9.728-3.083
			c-1.899-2.051-2.923-4.594-3.056-7.624H477.872z"/>
	</g>
</g>
</svg>
