<?xml version="1.0" encoding="UTF-8" standalone="no"?>
<svg width="128px" height="200px" viewBox="0 0 128 200" version="1.1" xmlns="http://www.w3.org/2000/svg" xmlns:xlink="http://www.w3.org/1999/xlink">
    <!-- Generator: Sketch 3.6.1 (26313) - http://www.bohemiancoding.com/sketch -->
    <title>Fill-1</title>
    <desc>Created with Sketch.</desc>
    <defs>
        <linearGradient x1="50%" y1="0%" x2="50%" y2="100%" id="linearGradient-1">
            <stop stop-color="#00A4D7" offset="0%"></stop>
            <stop stop-color="#00BD94" offset="100%"></stop>
        </linearGradient>
    </defs>
    <g id="Page-1" stroke="none" stroke-width="1" fill="none" fill-rule="evenodd">
        <g id="logo-(1)" fill="#FFFFFF">
            <g id="Page-1">
                <g id="Desktop-HD">
                    <g id="text">
                        <g id="logo-+-text">
                            <g id="logo">
                                <path d="M53.2545963,70.0939268 C53.2545963,58.6642802 53.2232802,47.2346336 53.2948597,35.804987 C53.2993335,34.2298457 52.8072244,33.2601905 51.5366882,32.2642097 C42.9068845,25.5073361 42.0568779,13.6740321 49.5235147,5.71057395 C56.6233066,-1.8623896 69.2570887,-1.91065298 76.3837228,5.6096596 C83.8727282,13.5116917 83.0450902,25.4020342 74.6121301,32.2817601 C73.7665973,32.9706102 72.8852747,34.216683 72.8852747,35.2038885 C72.83159,60.6343038 72.8942221,86.064719 72.9479067,111.486359 C72.9479067,111.81104 73.0150125,112.135721 73.0239599,112.258573 C78.3745277,110.389464 83.6893057,108.757284 88.8161875,106.664408 C92.659112,105.093655 94.5470214,101.649404 95.5670293,97.8365969 C95.7191358,97.2574363 95.1778158,96.3579823 94.743865,95.7700466 C89.8630378,89.2106141 89.6482992,81.3831709 94.2293874,75.2449461 C99.0610037,68.7732652 107.493964,66.1714301 115.479552,68.681126 C122.785135,70.9714429 128.229651,77.9301452 127.992544,85.2837297 C127.742015,92.7996547 123.809617,98.0691386 116.852984,101.236972 C115.88666,101.680117 114.611651,102.439169 114.361122,103.294747 C110.719515,115.751087 101.776551,122.771216 89.7019839,126.535759 C78.2850533,130.089699 73.8650191,136.587706 72.8763272,149.188836 C72.48264,154.208228 72.7107996,159.293434 72.8852747,164.334763 C72.9255381,165.449209 73.6234383,166.840072 74.4958134,167.581573 C80.2221736,172.508825 82.745351,178.572461 80.9827058,185.88217 C79.197692,193.257693 74.2989698,198.005054 66.7115426,199.558258 C59.3522751,201.067585 53.1651219,198.671967 48.4274536,192.941787 C42.1687209,185.390761 43.3721513,174.189269 51.2101067,167.98523 C52.829593,166.704057 53.2993335,165.440434 53.2948597,163.523061 C53.2322277,143.502532 53.2098591,123.473228 53.3172283,103.448312 C53.3217021,101.228196 52.5790647,100.517408 50.4943117,99.8899844 C43.9582085,97.9155733 37.3057885,96.0991151 31.1052142,93.3524898 C22.3143566,89.4475434 16.9861574,82.2606869 14.207978,73.2661474 C13.7292901,71.7173315 13.0045476,70.7827769 11.3895351,70.0983144 C1.31919395,65.8818498 -2.8905755,54.3469012 2.10656847,45.0101304 C7.37213558,35.1600127 19.379597,31.9570791 28.944408,37.8452118 C38.0350047,43.4437643 40.3434436,55.5008348 33.8833936,64.1312052 C32.9125966,65.429929 32.747069,66.5004986 33.2794415,67.9966635 C34.5589251,71.5857041 36.6168358,74.6131345 40.1868635,76.1444 C44.2624213,77.890657 48.548244,79.1806056 53.2545963,80.8522736 L53.2545963,70.0939268 L53.2545963,70.0939268 Z M9.98031368,53.3991839 C10.0250509,58.2562353 14.1319248,62.2006699 19.0082783,62.0778177 C23.7951575,61.9549654 27.7051878,58.0061432 27.6962404,53.293882 C27.6872929,48.4807064 23.5535767,44.5406593 18.6280122,44.6503488 C13.7829747,44.7512632 9.94899764,48.6342717 9.98031368,53.3991839 L9.98031368,53.3991839 L9.98031368,53.3991839 Z M63.1459887,26.6700449 C67.9731313,26.6130064 71.8876353,22.6290835 71.7444763,17.9255974 C71.6013173,13.2923127 67.6868133,9.5453191 62.9938822,9.54970668 C58.1488447,9.54970668 54.2567093,13.4327152 54.3059202,18.2064026 C54.3506574,23.0020278 58.2338454,26.7270834 63.1459887,26.6700449 L63.1459887,26.6700449 L63.1459887,26.6700449 Z M63.1459887,190.467195 C67.9731313,190.410157 71.8876353,186.426234 71.7444763,181.722748 C71.6013173,177.089463 67.6868133,173.34247 62.9938822,173.346857 C58.1488447,173.346857 54.2567093,177.229866 54.3059202,182.003553 C54.3506574,186.799178 58.2338454,190.524234 63.1459887,190.467195 L63.1459887,190.467195 L63.1459887,190.467195 Z M118.145888,85.1915905 C118.132467,80.6021816 114.244806,76.9429396 109.395294,76.9692651 C104.581573,76.991203 100.631279,80.7601345 100.689437,85.2793421 C100.752069,89.8336505 104.733679,93.5674813 109.493716,93.5367682 C114.316385,93.49728 118.154836,89.8029374 118.145888,85.1915905 L118.145888,85.1915905 L118.145888,85.1915905 Z" id="Fill-1"></path>
                            </g>
                        </g>
                    </g>
                </g>
            </g>
        </g>
    </g>
</svg>