<?xml version="1.0" encoding="UTF-8" standalone="no"?>
<svg width="255px" height="140px" viewBox="0 0 255 140" version="1.1" xmlns="http://www.w3.org/2000/svg" xmlns:xlink="http://www.w3.org/1999/xlink" xmlns:sketch="http://www.bohemiancoding.com/sketch/ns">
    <!-- Generator: Sketch 3.4 (15575) - http://www.bohemiancoding.com/sketch -->
    <title>ARIZONA Copy</title>
    <desc>Created with Sketch.</desc>
    <defs>
        <linearGradient x1="50%" y1="100%" x2="50%" y2="3.061617e-15%" id="linearGradient-1">
            <stop stop-color="#00A4D7" offset="0%"></stop>
            <stop stop-color="#00BD94" offset="100%"></stop>
        </linearGradient>
    </defs>
    <g id="Page-1" stroke="none" stroke-width="1" fill="none" fill-rule="evenodd" sketch:type="MSPage">
        <g id="Desktop-HD" sketch:type="MSArtboardGroup" transform="translate(-593.000000, -376.000000)" fill="url(#linearGradient-1)">
            <g id="text" sketch:type="MSLayerGroup" transform="translate(592.000000, 128.000000)">
                <g id="logo-+-text" transform="translate(1.000000, 0.000000)" sketch:type="MSShapeGroup">
                    <g id="text" transform="translate(0.000000, 248.000000)">
                        <path d="M0,139.21086 L7.2103527,139.21086 L9.6138036,129.662015 L26.6977924,129.662015 L29.1012433,139.21086 L36.3765542,139.21086 L25.3336717,94.7145395 L10.9779244,94.7145395 L0,139.21086 Z M16.5643238,100.755646 L19.8122304,100.755646 L25.2687135,123.296118 L11.0428825,123.296118 L16.5643238,100.755646 Z M60.4110632,123.361076 L66.8419183,139.21086 L74.7668105,139.21086 L67.4265415,121.737123 C72.1684852,119.528546 74.7018523,115.176351 74.7018523,108.875412 C74.7018523,99.0017762 69.4402436,94.7145395 59.6315656,94.7145395 L42.7424512,94.7145395 L42.7424512,139.21086 L49.9528039,139.21086 L49.9528039,123.361076 L60.4110632,123.361076 Z M67.2966252,108.94037 C67.2966252,113.552398 65.217965,117.125095 59.7614819,117.125095 L49.9528039,117.125095 L49.9528039,100.95052 L59.6315656,100.95052 C64.8282162,100.95052 67.2966252,103.873636 67.2966252,108.94037 L67.2966252,108.94037 Z M82.886577,139.21086 L90.0969297,139.21086 L90.0969297,94.7145395 L82.886577,94.7145395 L82.886577,139.21086 Z M97.9568637,101.015478 L118.548592,101.015478 L118.548592,102.314641 L97.9568637,132.325298 L97.9568637,139.21086 L127.188023,139.21086 L127.188023,132.909921 L106.531337,132.909921 L106.531337,131.675717 L127.188023,101.66506 L127.188023,94.7145395 L97.9568637,94.7145395 L97.9568637,101.015478 Z M151.222532,133.624461 C142.583101,133.624461 140.569399,128.297894 140.569399,117.190053 C140.569399,106.147171 142.648059,100.300939 151.222532,100.300939 C159.797006,100.300939 161.810708,106.147171 161.810708,117.190053 C161.810708,128.492768 159.861964,133.624461 151.222532,133.624461 L151.222532,133.624461 Z M151.222532,139.9254 C165.123573,139.9254 169.280893,132.325298 169.280893,117.190053 C169.280893,102.249683 165.123573,94 151.222532,94 C137.321492,94 133.099213,102.314641 133.099213,117.190053 C133.099213,132.195382 137.256534,139.9254 151.222532,139.9254 L151.222532,139.9254 Z M177.660492,139.21086 L184.870845,139.21086 L184.870845,101.015478 L185.780259,101.015478 L199.616341,139.21086 L211.958386,139.21086 L211.958386,94.7145395 L204.748033,94.7145395 L204.748033,132.844963 L203.773662,132.844963 L190.26237,94.7145395 L177.660492,94.7145395 L177.660492,139.21086 Z M218.389241,139.21086 L225.599594,139.21086 L228.003045,129.662015 L245.087034,129.662015 L247.490485,139.21086 L254.765795,139.21086 L243.722913,94.7145395 L229.367166,94.7145395 L218.389241,139.21086 Z M234.953565,100.755646 L238.201472,100.755646 L243.657955,123.296118 L229.432124,123.296118 L234.953565,100.755646 Z M42.922813,76.6704545 L58.0720412,76.6704545 L58.0720412,1.32954545 L42.922813,1.32954545 L42.922813,32.1306818 L15.1492281,32.1306818 L15.1492281,1.32954545 L0,1.32954545 L0,76.6704545 L15.1492281,76.6704545 L15.1492281,45.4261364 L42.922813,45.4261364 L42.922813,76.6704545 Z M68.0617496,76.6704545 L83.2109777,76.6704545 L86.1749571,63.0426136 L112.301887,63.0426136 L115.265866,76.6704545 L130.415094,76.6704545 L113.619211,1.32954545 L84.8576329,1.32954545 L68.0617496,76.6704545 Z M96.6037736,13.9602273 L101.87307,13.9602273 L109.447684,49.7471591 L89.0291595,49.7471591 L96.6037736,13.9602273 Z M186.401372,62.9318182 C182.010292,63.5965909 172.679245,64.4829545 167.629503,64.4829545 C154.675815,64.4829545 152.041166,59.2755682 152.041166,39 C152.041166,17.6164773 155.663808,13.5170455 167.190395,13.5170455 C172.13036,13.5170455 181.35163,14.4034091 186.401372,15.1789773 L186.84048,2.99147727 C182.229846,1.88352273 172.789022,0 164.994854,0 C142.819897,0 136.45283,10.4147727 136.45283,39 C136.45283,65.3693182 141.941681,78 164.994854,78 C171.801029,78 181.680961,76.5596591 186.730703,75.4517045 L186.401372,62.9318182 Z M236.789022,76.6704545 L254.243568,76.6704545 L237.557461,39.1107955 L253.80446,1.32954545 L236.569468,1.32954545 L224.274443,33.3494318 L214.174957,34.4573864 L214.174957,1.32954545 L199.025729,1.32954545 L199.025729,76.6704545 L214.174957,76.6704545 L214.174957,47.7528409 L224.274443,46.6448864 L236.789022,76.6704545 Z" id="ARIZONA-Copy"></path>
                    </g>
                </g>
            </g>
        </g>
    </g>
</svg>