<?xml version="1.0" encoding="UTF-8"?>
<svg width="164px" height="256px" viewBox="0 0 164 256" version="1.1" xmlns="http://www.w3.org/2000/svg" xmlns:xlink="http://www.w3.org/1999/xlink">
    <!-- Generator: Sketch 41 (35326) - http://www.bohemiancoding.com/sketch -->
    <title>Fill-1</title>
    <desc>Created with Sketch.</desc>
    <defs>
        <linearGradient x1="50%" y1="100%" x2="50%" y2="0%" id="linearGradient-1">
            <stop stop-color="#A17FC5" offset="0%"></stop>
            <stop stop-color="#7C80C7" offset="50%"></stop>
            <stop stop-color="#424876" offset="100%"></stop>
        </linearGradient>
        <filter x="-50%" y="-50%" width="200%" height="200%" filterUnits="objectBoundingBox" id="filter-2">
            <feGaussianBlur stdDeviation="0" in="SourceGraphic"></feGaussianBlur>
        </filter>
    </defs>
    <g id="Logo" stroke="none" stroke-width="1" fill="none" fill-rule="evenodd">
        <g id="Frame-01" transform="translate(-174.000000, -128.000000)" fill="url(#linearGradient-1)">
            <path d="M242.232451,215.911841 C242.232451,201.281893 242.192328,188.460331 242.284039,173.830383 C242.289771,171.814202 241.659256,170.573044 240.031382,169.298188 C228.974446,160.64939 227.885375,145.502761 237.452003,135.309535 C246.548612,125.616141 262.735645,125.554364 271.866645,135.180364 C281.461933,145.294965 280.401522,160.514604 269.596792,169.320653 C268.513453,170.202381 267.384258,171.797354 267.384258,173.060977 C267.315475,205.611909 267.395722,238.16284 267.464505,270.702539 C267.464505,271.118131 267.550485,271.533723 267.561949,271.690974 C274.417364,269.298514 281.226923,267.209324 287.79574,264.530443 C292.719487,262.519878 295.138371,258.111237 296.445256,253.230844 C296.640143,252.489518 295.946576,251.338217 295.390577,250.585659 C289.137017,242.189586 288.861883,232.170459 294.731403,224.313531 C300.921911,216.029779 311.726641,212.69943 321.958176,215.911841 C331.318454,218.843447 338.29424,227.750586 337.990447,237.163174 C337.669457,246.783558 332.631071,253.528497 323.717885,257.583323 C322.479784,258.15055 320.846177,259.122136 320.525188,260.217276 C315.859379,276.161391 304.401206,285.147156 288.930667,289.965772 C274.302725,294.514815 268.639556,302.832263 267.372794,318.96171 C266.868382,325.386532 267.160712,331.895596 267.384258,338.348498 C267.435846,339.774988 268.33003,341.555292 269.447761,342.504414 C276.78466,348.811296 280.017481,356.57275 277.759092,365.929178 C275.472043,375.369846 269.195555,381.44647 259.474164,383.43457 C250.045102,385.36651 242.117812,382.300118 236.047675,374.965488 C228.028674,365.300174 229.570569,350.962264 239.612949,343.021094 C241.687916,341.381192 242.289771,339.763756 242.284039,337.309518 C242.203792,311.683241 242.175132,286.045732 242.312699,260.413839 C242.318431,257.572091 241.366927,256.662283 238.695837,255.85918 C230.321455,253.331934 221.798042,251.006867 213.853556,247.491187 C202.590269,242.492855 195.763514,233.293679 192.203972,221.780668 C191.590653,219.798184 190.662077,218.601954 188.592842,217.725842 C175.690217,212.328768 170.29645,197.564034 176.699041,185.612967 C183.445549,173.004816 198.830109,168.905061 211.085023,176.441871 C222.73235,183.608018 225.690037,199.041069 217.413098,210.087943 C216.169264,211.750309 215.957182,213.120638 216.639284,215.035729 C218.278623,219.629701 220.915321,223.504812 225.489419,225.464832 C230.711227,227.700041 236.202438,229.351175 242.232451,231.49091 L242.232451,217.720226 L242.232451,215.911841 Z M186.787277,196.350955 C186.844596,202.567981 192.106529,207.616857 198.354357,207.459607 C204.487546,207.302356 209.497272,202.247863 209.485808,196.216169 C209.474344,190.055304 204.17802,185.012044 197.867141,185.152447 C191.659436,185.281617 186.747153,190.251868 186.787277,196.350955 L186.787277,196.350955 L186.787277,196.350955 Z M254.905798,162.137657 C261.090575,162.064648 266.106033,156.965227 265.92261,150.944765 C265.739188,145.01416 260.72373,140.218008 254.710912,140.223625 C248.503207,140.223625 243.516409,145.193875 243.57946,151.304195 C243.63678,157.442596 248.612114,162.210667 254.905798,162.137657 L254.905798,162.137657 L254.905798,162.137657 Z M254.905798,371.79801 C261.090575,371.725 266.106033,366.62558 265.92261,360.605118 C265.739188,354.674512 260.72373,349.878362 254.710912,349.883978 C248.503207,349.883978 243.516409,354.854228 243.57946,360.964548 C243.63678,367.102948 248.612114,371.87102 254.905798,371.79801 L254.905798,371.79801 L254.905798,371.79801 Z M325.37442,237.045236 C325.357224,231.170792 320.376157,226.486963 314.162721,226.520659 C307.99514,226.54874 302.933826,231.372972 303.008342,237.157558 C303.088589,242.987072 308.190027,247.766376 314.288824,247.727063 C320.467868,247.676518 325.385883,242.94776 325.37442,237.045236 L325.37442,237.045236 L325.37442,237.045236 Z" id="Fill-1" filter="url(#filter-2)"></path>
        </g>
    </g>
</svg>